<svg width="15" height="15" viewBox="0 0 15 15" fill="none" xmlns="http://www.w3.org/2000/svg">
<path fill-rule="evenodd" clip-rule="evenodd" d="M2.252 3.1574C2 3.534 2 4.654 2 6.8919V7.9937C2 11.9403 4.826 13.8562 6.59933 14.6689C7.08 14.8894 7.32067 15 8 15C8.68 15 8.92 14.8894 9.40067 14.6689C11.174 13.8555 14 11.941 14 7.9937V6.8919C14 4.6533 14 3.534 13.748 3.1574C13.4967 2.7815 12.4947 2.421 10.49 1.7007L10.108 1.5635C9.06333 1.1876 8.54133 1 8 1C7.45867 1 6.93667 1.1876 5.892 1.5635L5.51 1.7C3.50533 2.421 2.50333 2.7815 2.252 3.1574ZM10.04 6.95C10.0837 6.89852 10.1174 6.8385 10.139 6.77337C10.1607 6.70824 10.1699 6.63927 10.1661 6.5704C10.1624 6.50153 10.1457 6.43412 10.1172 6.37199C10.0886 6.30987 10.0487 6.25427 9.99967 6.20835C9.95064 6.16243 9.89348 6.12711 9.83145 6.10438C9.76942 6.08166 9.70374 6.07199 9.63815 6.07592C9.57256 6.07986 9.50835 6.09732 9.44919 6.1273C9.39002 6.15729 9.33706 6.19922 9.29333 6.2507L7.286 8.6125L6.706 7.9307C6.61736 7.82785 6.49355 7.76602 6.36163 7.7587C6.22971 7.75139 6.1004 7.79919 6.00193 7.89167C5.90347 7.98414 5.84386 8.11377 5.83613 8.25225C5.8284 8.39072 5.87317 8.52678 5.96067 8.6307L6.91267 9.7507C6.95957 9.80587 7.01704 9.85001 7.08132 9.88023C7.1456 9.91045 7.21524 9.92608 7.28567 9.92608C7.3561 9.92608 7.42573 9.91045 7.49001 9.88023C7.55429 9.85001 7.61176 9.80587 7.65867 9.7507L10.04 6.95Z" fill="#808080"/>
</svg>
